<svg xmlns="http://www.w3.org/2000/svg" viewBox="0 0 512 512"><defs><style>.cls-1{fill:none;}.cls-1,.cls-2,.cls-3{stroke:#000;stroke-miterlimit:10;}.cls-3{fill:#fff;}</style></defs><title>Монтажная область 1</title><g id="Слой_4" data-name="Слой 4"><polygon points="314.85 157.26 299.52 157.59 299.52 125.59 314.85 125.59 314.85 156.01 314.85 157.26"/><path d="M424.1,165.28c-26.41,12.63-39,29.14-45,39.06-28.12,46.66-12.82,119,41,177.5a469.81,469.81,0,0,0-75-35.5c-42.9-15.8-61.91-15.53-76.71-12.36a94.75,94.75,0,0,0-22.29,7.8q-19.71-17.26-39.5-34.94-7.28-6.49-14.5-13c-.67-2.33-1.33-4.67-2-7a95,95,0,0,1-3.45-25.12,87.9,87.9,0,0,1,.95-12.88s6.41-43.2,48-69.5a126.05,126.05,0,0,1,24-11.5,117.32,117.32,0,0,1,23.5-5.5,573.81,573.81,0,0,1,141,2.94Z"/><path d="M319.72,345.34v60s-25.12-.5-25.12,0V338.46h1.75l14.75,1.38,3.12,1.62,3.5,1.63Z"/><path class="cls-1" d="M246.1,341.78q-19.71-17.26-39.5-34.94-7.28-6.49-14.5-13c-.67-2.33-1.33-4.67-2-7a95,95,0,0,1-3.45-25.12,87.9,87.9,0,0,1,.95-12.88s6.41-43.2,48-69.5a126.05,126.05,0,0,1,24-11.5,117.32,117.32,0,0,1,23.5-5.5,573.81,573.81,0,0,1,141,2.94"/><path class="cls-1" d="M420.1,381.84C366.28,323.3,351,251,379.1,204.34c6-9.92,18.59-26.43,45-39.06"/><path class="cls-1" d="M420.1,381.84a469.81,469.81,0,0,0-75-35.5c-42.9-15.8-61.91-15.53-76.71-12.36a94.75,94.75,0,0,0-22.29,7.8"/><polygon class="cls-1" points="299.52 125.59 314.85 125.59 314.85 156.01 314.85 157.26 299.52 157.59 299.52 125.59"/><path class="cls-1" d="M294.6,405.34c0-.5,25.12,0,25.12,0v-60l-2-2.25-3.5-1.63-3.12-1.62-14.75-1.38H294.6Z"/><path class="cls-2" d="M352.33,122.5c-.29.4-3.81-2.09-9.41-4.5a67.82,67.82,0,0,0-9.67-3.25,85.19,85.19,0,0,0-21.25-3A78.41,78.41,0,0,0,275.28,121c-9.62,5.11-22.13,11.77-27.45,23.45-.75,1.66-2.77,6.5-5,6.33-1.43-.11-2.5-2.6-4.58-7.58-.91-2.19-1.89-4.8-3.42-9.59-1.1-3.46-1.89-6.19-2-6.58-1.54-5.54-3.62-33.85,16.09-56.08,12.1-13.65,27-18.86,37.83-22.67A141,141,0,0,1,310,42.5c5.82-1,11.38-1.3,22.5-2,8.43-.53,19.29-.25,19.33.5,0,.23-1,.32-2.5.83s-4.28,1.74-9.58,8.17c-3.13,3.8-4.7,5.7-6.08,8.58-.85,1.76-2.5,5.67-2.92,13a63.65,63.65,0,0,0,5,27.92c2.06,4.9,4.73,11.23,10.75,17.25C349.26,119.51,352.62,122.1,352.33,122.5Z"/><polygon class="cls-2" points="299.52 115.75 299.52 156.44 299.52 157.59 314.85 157.26 315.75 115.75 299.52 115.75"/></g><g id="Слой_8" data-name="Слой 8"><path class="cls-2" d="M299,14.5c-8.61-2-14.62-.87-18.5.5-5.08,1.8-6.76,4.13-13.75,7-1.33.55-4.86,1.94-13.75,3.75-17.51,3.57-23.13,2.11-35.5,6.5A34.47,34.47,0,0,0,208,37c-2.48,1.81-9.47,6.92-10.25,14.75-.37,3.71.8,6.56,2,9.5,2.8,6.84,7.2,9.76,8.75,16.25a13.11,13.11,0,0,1,.25,5,9.89,9.89,0,0,1-2,5A11.16,11.16,0,0,1,203,90.25a23.29,23.29,0,0,1-5.75,2.25,28.28,28.28,0,0,1-6.5.75c-4.16.09-5.41-.38-11-.75-2.88-.19-8.41-.56-8.5,0s5.64,1.9,8.25,2.5c6.86,1.58,10.3,2.34,13.5,2.5s15.23.75,19.8-6.52c3.63-5.8,1-14.51-2.05-19.23-2-3.08-3.59-3.67-5.5-7.75-1.05-2.25-2.9-6.21-2-10.75s4.29-7.48,5.75-8.75c6.13-5.33,13-4.4,28.5-5.75,12.52-1.09,18.79-1.63,24.75-3.5,12.18-3.82,16-8.68,25.28-7.71,4,.42,16,2.62,12,2Z"/><path class="cls-2" d="M138.5,96c.16-.25,0-1.84-.25-5-.22-2.6-.58-6.62-1.31-6.66h0c-28.55,1.19-32.67,9.16-32.67,9.16a12.49,12.49,0,0,0-1.24,6c.1,6.41,4.66,8,4.74,13.25.1,6-5.76,10.63-5,11.25.26.21,1.26-.44,3.25-1.75a17.08,17.08,0,0,0,3-2.25,11.37,11.37,0,0,0,2.5-3.5,6.34,6.34,0,0,0,.75-2.75c0-1.44-.68-1.86-1.25-3.5a10.55,10.55,0,0,1-.25-5.75,9,9,0,0,1,1.75-3.75,9.55,9.55,0,0,1,5-3C126.16,95.35,136.44,99.3,138.5,96Z"/><path class="cls-2" d="M429.25,125.5c.87-.55.75-2.78.5-7.25-.2-3.66-.31-5.56-1.25-7.5-1.66-3.41-4.9-4.87-9.25-6.75-6.1-2.64-9.76-4.25-14.75-3.75-6.71.67-15.1,4.86-17.25,11.75-2.09,6.7,3.25,10.3.75,15.75-3.48,7.58-17.26,7.92-17,9.25.18.88,6.19.35,7.25.25,3.07-.28,5.05-.47,7.25-1.75a14.89,14.89,0,0,0,3.75-3.25,20,20,0,0,0,3-4.5c2.28-5-.5-8,1-11.25,1.81-3.87,8.56-5.27,13.5-4.75C419.25,113.06,426.37,127.31,429.25,125.5Z"/></g><g id="Слой_7" data-name="Слой 7"><path d="M99.9,352.26,6.12,282.75l93.77,53.42S99.67,348.5,99.9,352.26Z"/><path d="M99.89,353.5c0-.41,0-.83,0-1.24q.27-22.35.54-44.71c2.5,1.74,6.35,4.37,11.06,7.45,9.39,6.15,20.22,12.54,68.62,38.62,8.23,4.44,25.24,13.5,36.38,19.38l14,7.5c6.22,3.33,9,4.85,12.88,7.12,4.31,2.56,7.57,4.67,9.62,6,10.17,6.62,12.56,9,18,10,1,.18,1.68.24,6.75.26,14.25,0,20.37-.26,20.37-.26,37.68-1.76,52-5,81.38-8.87a51.12,51.12,0,0,0,18.74-6.24h0a62,62,0,0,1,15-6.25c5.95-1.75,10.2-2.44,10.37-4.37,0,0,0,0,0,0,.37-5,.53-6.61.75-10,0,0,0-.61.07-1.29.47-7.8.05-16.84.05-16.84-.64-13.81-1-20.72-.12-22.37,1.71-3.4,6.85-6.65,17.12-13.13,3.37-2.13,3.29-1.9,11-6.63,6.34-3.88,8.43-5.29,11.74-7.25.52-.31,2.19-1.3,4.37-2.71,1.11-.72,1.92-1.26,2.14-1.41,5.58-3.75,18.53-10.77,27.75-18l0,0c2.1-1.64,9.56-7.49,11-6.23.35.31,0,.71-.25,3.62-.16,2.33.08,2.17-.13,3.88-.14,1.26-.3,1.59-.74,4.5-.11.68-.15,1-.18,1.22-.23,1.71-.3,3-.32,3.28-.13,1.86-.55,5.07-1,8.5-.81,6.13-2.14,12.57-2.38,13.75-7.34,35.77-6.16,47.49-6.12,47.5l.07,0a1.92,1.92,0,0,0,1-.1c.16-.06,1-.14,2.81-.29s4.21-.08,4.25.24c0,.15-.45.31-.62.38-1.71.72-3.85,6.05-.51,26.12h0c1.26,7.6-1.54,11.63-4.13,20.88-2.12,7.6-3.4,16.2-4.53,19.76a12.29,12.29,0,0,0-.7,2.53,15.28,15.28,0,0,1-.64,3.33h0c-.84,2.53-2,8.65-3.87,13.49a17.76,17.76,0,0,1-2.88,5.5,17,17,0,0,1-4.87,4c-9.54,5.76-6.31,4.39-10.63,6.63a434.76,434.76,0,0,1-44.74,19.63c-8.91,3.23-16.07,5.83-25.58,8.67-7.43,2.22-27.78,8-59.55,12.2-24.18,3.18-26.68,1.7-121.13,1.75a110.28,110.28,0,0,1-28.24-3.12c-8.44-2.11-28.21-7.05-41.63-21-25-26-20.24-75.25-20.83-75.17,0,0,0,.15,0,.29A139.92,139.92,0,0,0,111,374.25a139.18,139.18,0,0,0-11.18-11.13Z"/><path class="cls-1" d="M99.9,352.26,6.12,282.75l93.77,53.42"/><path class="cls-1" d="M100.44,307.51v0q-.28,22.35-.54,44.71"/><path class="cls-1" d="M99.82,363.12l.07-9.62c0-.41,0-.83,0-1.24-.23-3.76,0-16.09,0-16.09"/><path class="cls-1" d="M131.38,404A139.92,139.92,0,0,0,111,374.25a139.18,139.18,0,0,0-11.18-11.13"/><path class="cls-1" d="M131.38,404c0-.14,0-.29,0-.29.59-.08-4.17,49.17,20.83,75.17,13.42,13.95,33.19,18.89,41.63,21A110.28,110.28,0,0,0,222.12,503c94.45-.05,96.95,1.43,121.13-1.75,31.77-4.18,52.12-10,59.55-12.2,9.51-2.84,16.67-5.44,25.58-8.67a434.76,434.76,0,0,0,44.74-19.63c4.32-2.24,1.09-.87,10.63-6.63a17,17,0,0,0,4.87-4,17.76,17.76,0,0,0,2.88-5.5c1.87-4.84,3-11,3.87-13.49h0a15.28,15.28,0,0,0,.64-3.33,12.29,12.29,0,0,1,.7-2.53c1.13-3.56,2.41-12.16,4.53-19.76,2.59-9.25,5.39-13.28,4.13-20.88h0c-3.34-20.07-1.2-25.4.51-26.12.17-.07.64-.23.62-.38,0-.32-2.37-.41-4.25-.24s-2.65.23-2.81.29a1.92,1.92,0,0,1-1,.1l-.07,0s-1.22-11.73,6.12-47.5c.24-1.18,1.57-7.62,2.38-13.75.45-3.43.87-6.64,1-8.5,0-.31.09-1.57.32-3.28,0-.19.07-.54.18-1.22.44-2.91.6-3.24.74-4.5.21-1.71,0-1.55.13-3.88.21-2.91.6-3.31.25-3.62-1.42-1.26-8.88,4.59-11,6.23l0,0c-9.22,7.23-22.17,14.25-27.75,18-.22.15-1,.69-2.14,1.41-2.18,1.41-3.85,2.4-4.37,2.71-3.31,2-5.4,3.37-11.74,7.25-7.71,4.73-7.63,4.5-11,6.63-10.27,6.48-15.41,9.73-17.12,13.13-.84,1.65-.52,8.56.12,22.37,0,0,.42,9-.05,16.84,0,.68-.07,1.28-.07,1.29-.22,3.36-.38,4.93-.75,10,0,0,0,0,0,0-.17,1.93-4.42,2.62-10.37,4.37a62,62,0,0,0-15,6.25h0a51.12,51.12,0,0,1-18.74,6.24c-29.4,3.85-43.7,7.11-81.38,8.87,0,0-6.12.29-20.37.26-5.07,0-5.77-.08-6.75-.26-5.44-1-7.83-3.38-18-10-2.05-1.33-5.31-3.44-9.62-6-3.86-2.27-6.66-3.79-12.88-7.12l-14-7.5c-11.14-5.88-28.15-14.94-36.38-19.38-48.4-26.08-59.23-32.47-68.62-38.62-4.71-3.08-8.56-5.71-11.06-7.45l-.44-.3"/><line class="cls-2" x1="111.5" y1="315" x2="100.44" y2="307.51"/><line class="cls-1" x1="293.13" y1="397.38" x2="293.13" y2="397.25"/><line class="cls-1" x1="99.89" y1="336.17" x2="99.9" y2="352.26"/></g><g id="Слой_5" data-name="Слой 5"><path class="cls-2" d="M275,239.42c-5.27,5.12-12.59,5.4-15.62,5.33a12,12,0,0,1-5.17-2.51,8.82,8.82,0,0,1-3.24-4.49c-1.08-4.52,3.77-8.65,4.2-9,4.92-4.08,11.42-2.55,12.33-2.32a11.61,11.61,0,0,1,7.78,1.34c1.09.64,3,1.79,3.55,3.81C279.69,234.85,276.3,238.16,275,239.42Z"/><path class="cls-2" d="M316.33,241.25a11.65,11.65,0,0,1-6.66,3.67,13.31,13.31,0,0,1-3.84.16c-7.27-.71-14.08-7-15.33-12.66a4,4,0,0,1,.19-2.85c.7-1.29,2.26-1.84,5.81-2.32s5-.34,10.5-.5c4.48-.13,5.95-.29,7.87.75a7.91,7.91,0,0,1,3.13,2.92C320,233.86,318.67,238.5,316.33,241.25Z"/><path class="cls-2" d="M290.33,250.58c-.13,1.56-.22,2.69-1.16,3.5a3.47,3.47,0,0,1-3.67.5c-1.73-.91-1.5-3.39-2.5-3.5s-1.64,2.87-3.33,3c-1,.08-1.9-.92-2.47-1.56a5.1,5.1,0,0,1-1.37-2.94c-.08-1.09.33-1.67,1.84-4.83.51-1.08.92-2,1.16-2.5,2.26-5.26,3.57-6.12,4.34-6,2,.31,3,7.78,5.66,10a4,4,0,0,1,1,1.17A5.16,5.16,0,0,1,290.33,250.58Z"/></g><g id="Слой_3" data-name="Слой 3"><polygon class="cls-2" points="139.58 172.75 139.58 186.92 151 185.92 151 169.25 139.58 171.17 139.58 172.75"/><path class="cls-2" d="M305.42,6.42c-.09.08,0,30.16,0,30.16h9.91V6.42Z"/><polygon class="cls-2" points="151.25 297.5 151.25 330.88 136.25 323.12 136.25 297.5 151.25 297.5"/><path class="cls-2" d="M443.75,261v47.5l-11.11,6,.11-1.75s-.25-51.75,0-51.75Z"/><polyline class="cls-2" points="433.5 104.5 444 104.5 444 153 433.5 153 432.25 104.5"/><path class="cls-3" d="M336,203.25c-.49-5.38-1.26-13.7-7.5-19.5-7.29-6.77-17.47-5.84-32-4.5-11.28,1-22.21,2-34,9.5-5.32,3.36-15.86,10-21,23.5-3.55,9.3-2.51,16.56-.5,30.5.62,4.34,1.56,8.52,5,11.5a14.57,14.57,0,0,0,8.54,3.3,14.36,14.36,0,0,0,7.46-1.8c-.43.76-3.17,5.79-1,10.5,1.65,3.57,5.24,5,8.39,6.27a25.15,25.15,0,0,0,8.11,1.73c5.91.31,15.12.83,21.32-1a10.26,10.26,0,0,0,5.4-3.17,5.34,5.34,0,0,0,.78-1.35c1.85-4.65-2.83-10.7-1.5-11.5,1.15-.69,3.6,4.44,8,5a7.17,7.17,0,0,0,2.16-.07h0a11.43,11.43,0,0,0,3.59-1.34c.14-.07.27-.15.4-.23l.46-.28.51-.35a11.92,11.92,0,0,0,1.23-1,16.84,16.84,0,0,0,1.94-1.93h0l.06-.07a12.8,12.8,0,0,0,3.12-7.22c.33-5.8-5.06-9.57-3-13.5.86-1.64,2.42-2.17,3.59-2.78C333.9,229.17,337,213.93,336,203.25Zm-61,36.17c-5.27,5.12-12.59,5.4-15.62,5.33a12,12,0,0,1-5.17-2.51,8.82,8.82,0,0,1-3.24-4.49c-1.08-4.52,3.77-8.65,4.2-9,4.92-4.08,11.42-2.55,12.33-2.32a11.61,11.61,0,0,1,7.78,1.34c1.09.64,3,1.79,3.55,3.81C279.69,234.85,276.3,238.16,275,239.42Zm15.33,11.16c-.13,1.56-.22,2.69-1.16,3.5a3.47,3.47,0,0,1-3.67.5c-1.73-.91-1.5-3.39-2.5-3.5s-1.64,2.87-3.33,3c-1,.08-1.9-.92-2.47-1.56a5.1,5.1,0,0,1-1.37-2.94c-.08-1.09.33-1.67,1.84-4.83.51-1.08.92-2,1.16-2.5,2.26-5.26,3.57-6.12,4.34-6,2,.31,3,7.78,5.66,10a4,4,0,0,1,1,1.17A5.16,5.16,0,0,1,290.33,250.58Zm26-9.33a11.65,11.65,0,0,1-6.66,3.67,13.31,13.31,0,0,1-3.84.16c-7.27-.71-14.08-7-15.33-12.66a4,4,0,0,1,.19-2.85c.7-1.29,2.26-1.84,5.81-2.32s5-.34,10.5-.5c4.48-.13,5.95-.29,7.87.75a7.91,7.91,0,0,1,3.13,2.92C320,233.86,318.67,238.5,316.33,241.25Z"/><path class="cls-3" d="M315,282.25c-.16,2.61-.51,8.48-4.5,12.5-7,7.09-20.18,3.18-27.5,1-5.94-1.77-16.06-4.78-20.5-14a21.27,21.27,0,0,1-2-7.5c-.86-1.8-2-4.58-1-5.5,1.6-1.5,6.48,4,15.5,6.5,9.38,2.58,20,1,20,1l8.5-3.5c.95-1,4.49-4.43,7.5-3.5C315.59,270.67,315.07,281.11,315,282.25Z"/><path class="cls-3" d="M331,247.75c0-5.08,2.71-8.72,5.5-9,1.44-.15,3.73.52,4.53,2.05.52,1,.18,1.87,1,3.45a6.89,6.89,0,0,0,1.25,1.75,17.74,17.74,0,0,1,2.67.9c1.61.69,2.72,1.16,3.39,2a5.24,5.24,0,0,1-.31,6.31c-1.09,1.07-2.26.66-8.06,1.06-2.36.16-3.54.25-4.19.38-3.6.72-5.16,2.79-10.75,7.56-6.25,5.34-7.57,5.54-8.5,5.5-3.84-.17-7.35-4.54-6.62-6.37.5-1.31,2.86-.63,6.39-2.54a17.61,17.61,0,0,0,4.55-3.8C324,254.75,326.94,251.78,331,247.75Z"/><path class="cls-3" d="M314.56,296c-1.37-2.18.89-7.05,3.63-7.5a9.88,9.88,0,0,1,2.69.63c2.46.71,4.79,1.57,4.93,1.62h0a13.21,13.21,0,0,0,2.63,2.12h0a7.78,7.78,0,0,0,1.31.56,7.19,7.19,0,0,0,2.19.31c3.71,0,6.79-.29,8.81,0,3.86.55,8,3.71,8,6.75a6.07,6.07,0,0,1-2,4.13c-.7.59-1.08.56-1.69,1.25-1,1.15-.82,2.22-1.31,3.43a6.2,6.2,0,0,1-4.25,3.44c-3.19.63-6.18-2.55-8.12-4.62-2.43-2.58-1.45-2.78-3.38-4.63-3.45-3.31-9.59-5.6-11.44-6.25A3.43,3.43,0,0,1,314.56,296Z"/><path class="cls-3" d="M219.63,245.44c.74-1.81-.33-2.46.37-4.38a6.45,6.45,0,0,1,5.25-4.06c3.09-.29,5.2,2.07,5.75,2.69a9.8,9.8,0,0,1,2.25,5.06c.56,3.4,5.72,8.95,25,18.5a4.87,4.87,0,0,1,.5,5.5,4.69,4.69,0,0,1-3.06,1.94,5.58,5.58,0,0,1-3.44-.69c-7.85-4-11.75-6.5-11.75-6.5-3.27-2.08-5.86-3.63-8.62-4.25a9.33,9.33,0,0,0-4.25-.31c-.3.06-1.38.33-2.88.56a10.75,10.75,0,0,1-1.12.13,6,6,0,0,1-2.69-.69c-2.9-1.41-4.35-2.12-5.19-3.69a6.35,6.35,0,0,1-.3-5.49C216.55,247.44,218.66,247.79,219.63,245.44Z"/><path class="cls-3" d="M262.25,286.25c3.89.52,8.43,4.28,7.94,7-.2,1.12-1.1,1.18-5.94,4.63-2.64,1.88-4,2.84-4.5,3.68-1.95,3.16.09,5.63-1.75,7.82s-5.84,1.65-6.37,1.56c-4.35-.74-7.65-5-7.32-7.25a2.43,2.43,0,0,0-.19-1.75,2.71,2.71,0,0,0-1.65-1,6.59,6.59,0,0,1-4-5.25,5.23,5.23,0,0,1,1.44-4c1.78-1.64,4.59-1.15,6.12-.88,1.75.31,1.76.73,3.07.82,2.05.14,3.65-.78,5.62-1.94,3.13-1.85,4.21-3.54,6.75-3.5A4.72,4.72,0,0,1,262.25,286.25Z"/></g><g id="Слой_6" data-name="Слой 6"><path class="cls-2" d="M378.5,285.25a87.08,87.08,0,0,1-5.75-48c3.57-21,14-34.47,21.25-43.5,0,0,19.27-24.55,45.75-34.75a90,90,0,0,1,12.5-3.75c6-1.25,7.68-.81,18.75-1.75,12.44-1.06,15.63-2.07,16.5-.5,1.35,2.42-5.09,6.89-10.5,14-11.72,15.39-11.74,34.08-11.76,43.5A88.62,88.62,0,0,0,472,244.25c1.28,2.78,2.12,5.76,3.5,8.5,1.2,2.39,2.55,4.66,1.82,5.43-.46.49-1.54.15-1.82.07-5.46-1.62-29.79-2.67-34-2.5-7,.29-18.1,1.9-31.75,9a120.33,120.33,0,0,0-31.25,20.5Z"/></g><g id="Слой_1" data-name="Слой 1"><path class="cls-1" d="M118.33,188.33h-1"/><path class="cls-1" d="M173.67,127.67H173"/><path class="cls-1" d="M173.67,127.67h-1"/><path class="cls-1" d="M173,127.67h-1"/><path d="M173.05,127.39l-.05.28a31.52,31.52,0,0,0-12,16.66A31.85,31.85,0,0,0,163,167a91.87,91.87,0,0,0-22.67-.67c-7.31.71-11.38,1.15-15.21,4.08-7.06,5.41-7.7,15-7.79,17.92-13.33-16.79-16.84-36.71-8.66-48.89,7.83-11.67,24.65-13.68,31-14.44C153,123.4,169.13,126.41,173.05,127.39Z"/><path class="cls-1" d="M117.33,188.33c-13.33-16.79-16.84-36.71-8.66-48.89,7.83-11.67,24.65-13.68,31-14.44,13.35-1.6,29.46,1.41,33.38,2.39.88.23,1.15.34.62.28"/><path class="cls-1" d="M163,167h-1"/><path class="cls-1" d="M163,167a31.85,31.85,0,0,1-2-22.67,31.52,31.52,0,0,1,12-16.66"/><path class="cls-1" d="M163,167a91.87,91.87,0,0,0-22.67-.67c-7.31.71-11.38,1.15-15.21,4.08-7.06,5.41-7.7,15-7.79,17.92"/><path d="M151.62,72.25l.13,47.5-9.09.13h0l.17-47.7Z"/><polyline class="cls-1" points="142.83 72.17 142.66 119.87 142.66 119.88"/><path class="cls-1" d="M152.12,72.25h-.5l-8.79-.08"/><polyline class="cls-1" points="151.75 119.75 151.62 72.25 151.62 72.21"/><line class="cls-1" x1="142.66" y1="119.88" x2="151.75" y2="119.75"/><line class="cls-1" x1="142.83" y1="72.17" x2="142.34" y2="72.17"/><line class="cls-1" x1="142.66" y1="119.87" x2="142.14" y2="119.87"/><line class="cls-1" x1="151.75" y1="119.75" x2="152.24" y2="119.75"/><path d="M86.4,322.44C77.93,311.1,49.22,272,58,237.67c3.32-13,13.38-30.61,27.67-34.67a68.54,68.54,0,0,1,19-2.33c8,.32,11,2.15,17,.66s7.93-4.52,13.33-8c7.11-4.57,13.38-5.5,25.67-7.33a116.49,116.49,0,0,1,35.54.26c-5.27,1.64-18.81,6.69-26.72,20.13-8.91,15.13-5.06,31.32-2.79,40.9,3.34,14,9.78,23.5,14,29.54,10.52,15.18,18.68,18.59,56,53,1.44,1.32,2.61,2.4,3.34,3.09-8.87-5.05-119.95-67.27-146.67-36.94-4.09,4.65-7.61,13.07-4.68,29.55C88.47,325.2,87.66,324.13,86.4,322.44Z"/><path d="M88.65,325.55c0,.07,0,.11,0,.12S88.66,325.59,88.65,325.55Z"/><path d="M88.65,325.55s0,.08,0,.12-.53-.48-2.27-3.23C87.66,324.13,88.47,325.2,88.65,325.55Z"/><path class="cls-1" d="M86.33,322.33l.07.11c1.74,2.75,2.19,3.27,2.27,3.23s0-.05,0-.12c-.18-.35-1-1.42-2.25-3.11C77.93,311.1,49.22,272,58,237.67c3.32-13,13.38-30.61,27.67-34.67a68.54,68.54,0,0,1,19-2.33c8,.32,11,2.15,17,.66s7.93-4.52,13.33-8c7.11-4.57,13.38-5.5,25.67-7.33a116.49,116.49,0,0,1,35.54.26l.46.07"/><path class="cls-1" d="M88.67,325.67s0-.08,0-.12c-2.93-16.48.59-24.9,4.68-29.55,26.72-30.33,137.8,31.89,146.67,36.94"/><path class="cls-1" d="M240,332.94c-.73-.69-1.9-1.77-3.34-3.09-37.32-34.43-45.48-37.84-56-53-4.18-6-10.62-15.51-14-29.54-2.27-9.58-6.12-25.77,2.79-40.9,7.91-13.44,21.45-18.49,26.72-20.13"/><path class="cls-2" d="M202,321v0c.25-.63-.47-1.5-.51-1.48a158.11,158.11,0,0,0,11.06,20,89.19,89.19,0,0,0,16,18l11.5-19-38.56-19"/></g></svg>